<svg width="25" viewBox="0 0 190.39 189.47"><defs><style>.cls-1{fill:#fff;}</style></defs><title>shopping-cart (2)</title><path class="cls-1" d="M-1212.53,349.33h0c-15.86-13.71-30.53-33.13-30.53-81.93a56.31,56.31,0,0,0-56.24-56.24,56.31,56.31,0,0,0-56.25,56.24c0,48.85-14.67,68.26-30.54,82a24.39,24.39,0,0,0-8.4,18.38,9.51,9.51,0,0,0,9.5,9.5h54.22a33,33,0,0,0,31.47,23.38,33,33,0,0,0,31.47-23.38h54.23a9.51,9.51,0,0,0,9.5-9.5A24.26,24.26,0,0,0-1212.53,349.33Zm-18.32,8.91h-136.88c21.78-21.65,31.18-49.36,31.18-90.84a37.29,37.29,0,0,1,37.25-37.24,37.28,37.28,0,0,1,37.24,37.24C-1262.06,308.85-1252.65,336.56-1230.86,358.24Z" transform="translate(1394.5 -211.16)" /></svg>