<svg id="Layer_1" data-name="Layer 1" xmlns="http://www.w3.org/2000/svg" viewBox="0 0 183.39 182.46"><defs><style>.cls-1{fill:#fff;}</style></defs><title>Notification</title><path class="cls-1" d="M-71.82,371.13c-16.49-14.25-31.74-34.37-31.74-84.59A52.8,52.8,0,0,0-156.3,233.8a52.81,52.81,0,0,0-52.75,52.74c0,50.26-15.25,70.36-31.75,84.6a20.89,20.89,0,0,0-7.2,15.74,6,6,0,0,0,6,6h56.94a29.43,29.43,0,0,0,28.75,23.38,29.42,29.42,0,0,0,28.75-23.38h56.94a6,6,0,0,0,6-6,20.77,20.77,0,0,0-7.21-15.76h0Zm-84.49,33.14a17.41,17.41,0,0,1-16.3-11.38H-140a17.41,17.41,0,0,1-16.3,11.38h0Zm-77.33-23.38a8.55,8.55,0,0,1,.7-0.68c25.16-21.72,35.89-49.73,35.89-93.67A40.79,40.79,0,0,1-156.3,245.8a40.79,40.79,0,0,1,40.74,40.74c0,43.9,10.74,71.91,35.9,93.67a9.4,9.4,0,0,1,.7.67H-233.64Zm0,0" transform="translate(248 -233.8)"/></svg>